<svg width="838" height="76" viewBox="0 0 838 76" fill="none" xmlns="http://www.w3.org/2000/svg">
<path d="M5.837 16.832C4.813 16.832 3.93833 16.4693 3.213 15.744C2.48767 15.0187 2.125 14.144 2.125 13.12C2.125 12.096 2.48767 11.2213 3.213 10.496C3.93833 9.77067 4.813 9.408 5.837 9.408C6.861 9.408 7.73567 9.77067 8.461 10.496C9.18633 11.2213 9.549 12.096 9.549 13.12C9.549 14.144 9.18633 15.0187 8.461 15.744C7.73567 16.4693 6.861 16.832 5.837 16.832ZM5.837 27.712C4.813 27.712 3.93833 27.3493 3.213 26.624C2.48767 25.8987 2.125 25.024 2.125 24C2.125 22.976 2.48767 22.1013 3.213 21.376C3.93833 20.6507 4.813 20.288 5.837 20.288C6.861 20.288 7.73567 20.6507 8.461 21.376C9.18633 22.1013 9.549 22.976 9.549 24C9.549 25.024 9.18633 25.8987 8.461 26.624C7.73567 27.3493 6.861 27.712 5.837 27.712ZM10.2595 52L14.4195 45.6H27.0275V52H10.2595ZM17.1075 52V39.2H19.9235V52H17.1075ZM13.5235 31.52V23.392L19.9235 20.32V28.064C19.5395 28.7893 18.9848 29.408 18.2595 29.92C17.5768 30.3893 16.8088 30.7733 15.9555 31.072C15.1448 31.328 14.3342 31.4773 13.5235 31.52ZM13.5235 22.112V2.208L19.9235 0.799999V19.04L13.5235 22.112ZM19.9235 42.4L10.3875 32.8C10.9422 32.8 11.6675 32.8 12.5635 32.8C13.4595 32.8 14.3768 32.736 15.3155 32.608C16.2968 32.4373 17.1928 32.1387 18.0035 31.712C18.8568 31.2853 19.4968 30.6667 19.9235 29.856V42.4ZM10.3875 52C8.63817 52 7.03817 51.5733 5.5875 50.72C4.13683 49.8667 2.9635 48.7147 2.0675 47.264C1.21417 45.7707 0.7875 44.1493 0.7875 42.4C0.7875 40.608 1.21417 38.9867 2.0675 37.536C2.9635 36.0853 4.13683 34.9333 5.5875 34.08C7.03817 33.2267 8.63817 32.8 10.3875 32.8C12.1368 32.8 13.7368 33.2267 15.1875 34.08C16.6382 34.9333 17.7902 36.0853 18.6435 37.536C19.4968 38.9867 19.9235 40.608 19.9235 42.4C19.9235 44.1493 19.4968 45.7707 18.6435 47.264C17.7902 48.7147 16.6382 49.8667 15.1875 50.72C13.7368 51.5733 12.1368 52 10.3875 52ZM10.3875 45.6C11.2835 45.6 12.0302 45.3013 12.6275 44.704C13.2675 44.064 13.5875 43.296 13.5875 42.4C13.5875 41.504 13.2675 40.7573 12.6275 40.16C12.0302 39.52 11.2835 39.2 10.3875 39.2C9.4915 39.2 8.7235 39.52 8.0835 40.16C7.48617 40.7573 7.1875 41.504 7.1875 42.4C7.1875 43.296 7.48617 44.064 8.0835 44.704C8.7235 45.3013 9.4915 45.6 10.3875 45.6ZM36.5965 65.712C35.5725 65.712 34.6978 65.3493 33.9725 64.624C33.2472 63.8987 32.8845 63.024 32.8845 62C32.8845 60.976 33.2472 60.1013 33.9725 59.376C34.6978 58.6507 35.5725 58.288 36.5965 58.288C37.6205 58.288 38.4952 58.6507 39.2205 59.376C39.9458 60.1013 40.3085 60.976 40.3085 62C40.3085 63.024 39.9458 63.8987 39.2205 64.624C38.4952 65.3493 37.6205 65.712 36.5965 65.712ZM25.5245 65.712C24.5005 65.712 23.6258 65.3493 22.9005 64.624C22.1752 63.8987 21.8125 63.024 21.8125 62C21.8125 60.976 22.1752 60.1013 22.9005 59.376C23.6258 58.6507 24.5005 58.288 25.5245 58.288C26.5485 58.288 27.4232 58.6507 28.1485 59.376C28.8738 60.1013 29.2365 60.976 29.2365 62C29.2365 63.024 28.8738 63.8987 28.1485 64.624C27.4232 65.3493 26.5485 65.712 25.5245 65.712ZM32.15 52V45.6H46.23V52H32.15ZM24.47 52V45.6H32.15V34.208L38.55 32.8V50.528C38.55 51.04 38.3367 51.4027 37.91 51.616C37.4833 51.8293 37.0567 51.9573 36.63 52C36.2033 52 35.99 52 35.99 52H24.47ZM51.3375 52V45.6H65.4175V52H51.3375ZM43.6575 52V45.6H51.3375V2.208L57.7375 0.799999V50.528C57.7375 51.04 57.5242 51.4027 57.0975 51.616C56.6708 51.8293 56.2442 51.9573 55.8175 52C55.3908 52 55.1775 52 55.1775 52H43.6575ZM74.9715 65.712C73.9475 65.712 73.0728 65.3493 72.3475 64.624C71.6222 63.8987 71.2595 63.024 71.2595 62C71.2595 60.976 71.6222 60.1013 72.3475 59.376C73.0728 58.6507 73.9475 58.288 74.9715 58.288C75.9955 58.288 76.8702 58.6507 77.5955 59.376C78.3208 60.1013 78.6835 60.976 78.6835 62C78.6835 63.024 78.3208 63.8987 77.5955 64.624C76.8702 65.3493 75.9955 65.712 74.9715 65.712ZM63.8995 65.712C62.8755 65.712 62.0008 65.3493 61.2755 64.624C60.5502 63.8987 60.1875 63.024 60.1875 62C60.1875 60.976 60.5502 60.1013 61.2755 59.376C62.0008 58.6507 62.8755 58.288 63.8995 58.288C64.9235 58.288 65.7982 58.6507 66.5235 59.376C67.2488 60.1013 67.6115 60.976 67.6115 62C67.6115 63.024 67.2488 63.8987 66.5235 64.624C65.7982 65.3493 64.9235 65.712 63.8995 65.712ZM62.845 52V45.6H70.525V34.208L76.925 32.8V50.528C76.925 51.04 76.7117 51.4027 76.285 51.616C75.8583 51.8293 75.4317 51.9573 75.005 52C74.5783 52 74.365 52 74.365 52H62.845ZM80.1 52L83.94 45.6H124.58C124.623 43.808 124.26 42.2933 123.492 41.056C122.767 39.8187 121.209 39.2 118.82 39.2H87.14L95.588 25.12L96.228 25.568L92.9 32.8H118.82C121.465 32.8 123.577 33.1627 125.156 33.888C126.735 34.6133 127.929 35.5947 128.74 36.832C129.593 38.0267 130.169 39.392 130.468 40.928C130.767 42.4213 130.937 43.9787 130.98 45.6H138.66V52H80.1ZM142.712 24.712C141.688 24.712 140.813 24.3493 140.088 23.624C139.363 22.8987 139 22.024 139 21C139 19.976 139.363 19.1013 140.088 18.376C140.813 17.6507 141.688 17.288 142.712 17.288C143.736 17.288 144.611 17.6507 145.336 18.376C146.061 19.1013 146.424 19.976 146.424 21C146.424 22.024 146.061 22.8987 145.336 23.624C144.611 24.3493 143.736 24.712 142.712 24.712ZM143.775 52V45.6H157.855V52H143.775ZM136.095 52V45.6H143.775V34.208L150.175 32.8V50.528C150.175 51.04 149.962 51.4027 149.535 51.616C149.108 51.8293 148.682 51.9573 148.255 52C147.828 52 147.615 52 147.615 52H136.095ZM178.097 17.712C177.073 17.712 176.198 17.3493 175.473 16.624C174.747 15.8987 174.385 15.024 174.385 14C174.385 12.976 174.747 12.1013 175.473 11.376C176.198 10.6507 177.073 10.288 178.097 10.288C179.121 10.288 179.995 10.6507 180.721 11.376C181.446 12.1013 181.809 12.976 181.809 14C181.809 15.024 181.446 15.8987 180.721 16.624C179.995 17.3493 179.121 17.712 178.097 17.712ZM167.025 17.712C166.001 17.712 165.126 17.3493 164.401 16.624C163.675 15.8987 163.312 15.024 163.312 14C163.312 12.976 163.675 12.1013 164.401 11.376C165.126 10.6507 166.001 10.288 167.025 10.288C168.049 10.288 168.923 10.6507 169.649 11.376C170.374 12.1013 170.737 12.976 170.737 14C170.737 15.024 170.374 15.8987 169.649 16.624C168.923 17.3493 168.049 17.712 167.025 17.712ZM178.323 52V45.6H189.843V52H178.323ZM155.282 52V45.6H175.763V37.408L182.163 32.8V50.528C182.163 51.04 181.949 51.4027 181.523 51.616C181.096 51.8293 180.669 51.9573 180.243 52C179.816 52 179.603 52 179.603 52H155.282ZM172.627 42.4C170.877 42.4 169.277 41.9733 167.827 41.12C166.376 40.2667 165.203 39.1147 164.307 37.664C163.453 36.1707 163.027 34.5493 163.027 32.8C163.027 31.008 163.453 29.3867 164.307 27.936C165.203 26.4853 166.376 25.3333 167.827 24.48C169.277 23.6267 170.877 23.2 172.627 23.2C174.376 23.2 175.976 23.6267 177.427 24.48C178.877 25.3333 180.029 26.4853 180.883 27.936C181.736 29.3867 182.163 31.008 182.163 32.8C182.163 34.5493 181.736 36.1707 180.883 37.664C180.029 39.1147 178.877 40.2667 177.427 41.12C175.976 41.9733 174.376 42.4 172.627 42.4ZM172.627 36C173.523 36 174.269 35.7013 174.867 35.104C175.507 34.464 175.827 33.696 175.827 32.8C175.827 31.904 175.507 31.1573 174.867 30.56C174.269 29.92 173.523 29.6 172.627 29.6C171.731 29.6 170.963 29.92 170.323 30.56C169.725 31.1573 169.427 31.904 169.427 32.8C169.427 33.696 169.725 34.464 170.323 35.104C170.963 35.7013 171.731 36 172.627 36ZM187.282 52V45.6H194.963V2.208L201.363 0.799999V50.528C201.363 51.04 201.149 51.4027 200.723 51.616C200.296 51.8293 199.869 51.9573 199.443 52C199.016 52 198.803 52 198.803 52H187.282ZM217.018 48.288C216.762 49.2267 216.164 50.0373 215.226 50.72C214.33 51.36 213.263 51.808 212.026 52.064C210.831 52.32 209.658 52.32 208.506 52.064C207.396 51.808 206.458 51.2747 205.69 50.464C204.922 49.6107 204.538 48.416 204.538 46.88V2.208L210.938 0.799999V46.88C210.938 47.648 211.172 48.2027 211.642 48.544C212.111 48.8427 212.687 49.0133 213.37 49.056C214.052 49.056 214.735 48.9707 215.418 48.8C216.1 48.6293 216.634 48.4587 217.018 48.288ZM240.025 30.712C239.001 30.712 238.126 30.3493 237.401 29.624C236.675 28.8987 236.312 28.024 236.312 27C236.312 25.976 236.675 25.1013 237.401 24.376C238.126 23.6507 239.001 23.288 240.025 23.288C241.049 23.288 241.923 23.6507 242.649 24.376C243.374 25.1013 243.737 25.976 243.737 27C243.737 28.024 243.374 28.8987 242.649 29.624C241.923 30.3493 241.049 30.712 240.025 30.712ZM239.457 65.056C236.939 65.056 234.87 64.5653 233.249 63.584C231.627 62.6453 230.347 61.4507 229.409 60C228.513 58.592 227.873 57.1413 227.489 55.648C227.105 54.1973 226.913 52.9813 226.913 52C226.913 50.1227 227.297 48.3307 228.065 46.624C228.875 44.9173 229.899 43.4027 231.137 42.08C232.374 40.7147 233.654 39.6053 234.977 38.752C235.062 39.5627 235.019 40.3307 234.849 41.056C234.678 41.7813 234.294 42.5493 233.697 43.36C234.166 43.5733 234.55 43.8933 234.849 44.32C235.19 44.704 235.425 45.1307 235.553 45.6C235.681 46.0693 235.681 46.56 235.553 47.072C234.955 46.7307 234.422 46.496 233.953 46.368C233.526 46.1973 233.014 46.1547 232.417 46.24C231.222 46.368 230.326 47.0507 229.729 48.288C229.131 49.5253 228.833 50.7627 228.833 52C228.833 53.4507 229.174 54.8373 229.857 56.16C230.582 57.5253 231.691 58.6133 233.185 59.424C234.721 60.2773 236.705 60.704 239.137 60.704C241.313 60.704 243.041 60.192 244.321 59.168C245.643 58.144 246.561 56.8427 247.073 55.264C247.627 53.728 247.841 52.2133 247.713 50.72C247.627 49.4827 247.329 48.288 246.817 47.136C246.305 45.984 245.729 44.96 245.089 44.064C244.491 43.1253 243.979 42.4 243.553 41.888L246.881 35.232C248.502 37.1947 249.953 39.4987 251.233 42.144C252.513 44.7467 253.153 47.9253 253.153 51.68C253.153 54.0693 252.598 56.288 251.489 58.336C250.379 60.384 248.801 62.0053 246.753 63.2C244.747 64.4373 242.315 65.056 239.457 65.056ZM268.83 48.288C268.574 49.2267 267.977 50.0373 267.038 50.72C266.142 51.36 265.075 51.808 263.838 52.064C262.643 52.32 261.47 52.32 260.318 52.064C259.209 51.808 258.27 51.2747 257.502 50.464C256.734 49.6107 256.35 48.416 256.35 46.88V2.208L262.75 0.799999V46.88C262.75 47.648 262.985 48.2027 263.454 48.544C263.923 48.8427 264.499 49.0133 265.182 49.056C265.865 49.056 266.547 48.9707 267.23 48.8C267.913 48.6293 268.446 48.4587 268.83 48.288ZM279.949 52V45.6H289.293V52H279.949ZM263.372 61.6C265.804 62.24 267.788 62.5173 269.325 62.432C270.903 62.3467 272.119 62.0053 272.973 61.408C273.826 60.8107 274.402 60.064 274.701 59.168C275.042 58.272 275.213 57.376 275.213 56.48V34.208L281.613 32.8V55.84C281.613 58.1013 281.122 59.936 280.141 61.344C279.202 62.7947 277.965 63.84 276.429 64.48C274.893 65.1627 273.271 65.4827 271.565 65.44C269.901 65.3973 268.343 65.0347 266.892 64.352C265.399 63.712 264.226 62.7947 263.372 61.6ZM309.534 17.712C308.51 17.712 307.635 17.3493 306.91 16.624C306.185 15.8987 305.822 15.024 305.822 14C305.822 12.976 306.185 12.1013 306.91 11.376C307.635 10.6507 308.51 10.288 309.534 10.288C310.558 10.288 311.433 10.6507 312.158 11.376C312.883 12.1013 313.246 12.976 313.246 14C313.246 15.024 312.883 15.8987 312.158 16.624C311.433 17.3493 310.558 17.712 309.534 17.712ZM298.462 17.712C297.438 17.712 296.563 17.3493 295.838 16.624C295.113 15.8987 294.75 15.024 294.75 14C294.75 12.976 295.113 12.1013 295.838 11.376C296.563 10.6507 297.438 10.288 298.462 10.288C299.486 10.288 300.361 10.6507 301.086 11.376C301.811 12.1013 302.174 12.976 302.174 14C302.174 15.024 301.811 15.8987 301.086 16.624C300.361 17.3493 299.486 17.712 298.462 17.712ZM309.76 52V45.6H321.28V52H309.76ZM286.72 52V45.6H307.2V37.408L313.6 32.8V50.528C313.6 51.04 313.387 51.4027 312.96 51.616C312.533 51.8293 312.107 51.9573 311.68 52C311.253 52 311.04 52 311.04 52H286.72ZM304.064 42.4C302.315 42.4 300.715 41.9733 299.264 41.12C297.813 40.2667 296.64 39.1147 295.744 37.664C294.891 36.1707 294.464 34.5493 294.464 32.8C294.464 31.008 294.891 29.3867 295.744 27.936C296.64 26.4853 297.813 25.3333 299.264 24.48C300.715 23.6267 302.315 23.2 304.064 23.2C305.813 23.2 307.413 23.6267 308.864 24.48C310.315 25.3333 311.467 26.4853 312.32 27.936C313.173 29.3867 313.6 31.008 313.6 32.8C313.6 34.5493 313.173 36.1707 312.32 37.664C311.467 39.1147 310.315 40.2667 308.864 41.12C307.413 41.9733 305.813 42.4 304.064 42.4ZM304.064 36C304.96 36 305.707 35.7013 306.304 35.104C306.944 34.464 307.264 33.696 307.264 32.8C307.264 31.904 306.944 31.1573 306.304 30.56C305.707 29.92 304.96 29.6 304.064 29.6C303.168 29.6 302.4 29.92 301.76 30.56C301.163 31.1573 300.864 31.904 300.864 32.8C300.864 33.696 301.163 34.464 301.76 35.104C302.4 35.7013 303.168 36 304.064 36ZM318.72 52V45.6H326.4V2.208L332.8 0.799999V50.528C332.8 51.04 332.587 51.4027 332.16 51.616C331.733 51.8293 331.307 51.9573 330.88 52C330.453 52 330.24 52 330.24 52H318.72ZM348.455 48.288C348.199 49.2267 347.602 50.0373 346.663 50.72C345.767 51.36 344.7 51.808 343.463 52.064C342.268 52.32 341.095 52.32 339.943 52.064C338.834 51.808 337.895 51.2747 337.127 50.464C336.359 49.6107 335.975 48.416 335.975 46.88V2.208L342.375 0.799999V46.88C342.375 47.648 342.61 48.2027 343.079 48.544C343.548 48.8427 344.124 49.0133 344.807 49.056C345.49 49.056 346.172 48.9707 346.855 48.8C347.538 48.6293 348.071 48.4587 348.455 48.288ZM358.35 52L363.726 43.04C364.153 43.8933 364.793 44.5333 365.646 44.96C366.499 45.3867 367.31 45.6 368.078 45.6H381.07L384.91 52H358.35ZM384.91 52C383.161 52 381.561 51.5733 380.11 50.72C378.659 49.8667 377.507 48.7147 376.654 47.264C375.801 45.7707 375.374 44.1493 375.374 42.4C375.374 40.6933 375.758 39.136 376.526 37.728C377.337 36.32 378.425 35.168 379.79 34.272C381.155 33.376 382.649 32.8853 384.27 32.8C384.483 31.9467 384.761 31.3067 385.102 30.88C385.443 30.4533 385.785 30.048 386.126 29.664C388.942 31.4133 391.011 33.376 392.334 35.552C393.699 37.6853 394.382 39.968 394.382 42.4C394.382 44.1493 393.955 45.7707 393.102 47.264C392.249 48.7147 391.097 49.8667 389.646 50.72C388.238 51.5733 386.659 52 384.91 52ZM384.91 45.6C385.806 45.6 386.553 45.3013 387.15 44.704C387.79 44.064 388.11 43.296 388.11 42.4C388.11 41.504 387.79 40.7573 387.15 40.16C386.553 39.52 385.806 39.2 384.91 39.2C384.014 39.2 383.246 39.52 382.606 40.16C382.009 40.7573 381.71 41.504 381.71 42.4C381.71 43.296 382.009 44.064 382.606 44.704C383.246 45.3013 384.014 45.6 384.91 45.6ZM407.072 52L410.272 45.6H422.88V52H407.072ZM398.496 60.448C400.928 61.088 402.912 61.3653 404.448 61.28C406.027 61.1947 407.243 60.8533 408.096 60.256C408.949 59.6587 409.525 58.912 409.824 58.016C410.165 57.12 410.336 56.224 410.336 55.328V43.808L416.736 42.4V54.688C416.736 56.9493 416.245 58.784 415.264 60.192C414.325 61.6427 413.088 62.688 411.552 63.328C410.016 64.0107 408.395 64.3307 406.688 64.288C405.024 64.2453 403.445 63.8827 401.952 63.2C400.501 62.56 399.349 61.6427 398.496 60.448ZM416.736 42.4L407.2 32.8C407.755 32.8 408.48 32.8 409.376 32.8C410.272 32.8 411.189 32.736 412.128 32.608C413.109 32.4373 414.005 32.1387 414.816 31.712C415.669 31.2853 416.309 30.6667 416.736 29.856V42.4ZM407.2 52C405.451 52 403.851 51.5733 402.4 50.72C400.949 49.8667 399.776 48.7147 398.88 47.264C398.027 45.7707 397.6 44.1493 397.6 42.4C397.6 40.608 398.027 38.9867 398.88 37.536C399.776 36.0853 400.949 34.9333 402.4 34.08C403.851 33.2267 405.451 32.8 407.2 32.8C408.949 32.8 410.549 33.2267 412 34.08C413.451 34.9333 414.603 36.0853 415.456 37.536C416.309 38.9867 416.736 40.608 416.736 42.4C416.736 44.1493 416.309 45.7707 415.456 47.264C414.603 48.7147 413.451 49.8667 412 50.72C410.549 51.5733 408.949 52 407.2 52ZM407.2 45.6C408.096 45.6 408.843 45.3013 409.44 44.704C410.08 44.064 410.4 43.296 410.4 42.4C410.4 41.504 410.08 40.7573 409.44 40.16C408.843 39.52 408.096 39.2 407.2 39.2C406.304 39.2 405.536 39.52 404.896 40.16C404.299 40.7573 404 41.504 404 42.4C404 43.296 404.299 44.064 404.896 44.704C405.536 45.3013 406.304 45.6 407.2 45.6ZM428.025 52V45.6H442.105V52H428.025ZM420.345 52V45.6H428.025V2.208L434.425 0.799999V50.528C434.425 51.04 434.212 51.4027 433.785 51.616C433.358 51.8293 432.932 51.9573 432.505 52C432.078 52 431.865 52 431.865 52H420.345ZM439.532 52V45.6H446.957C446.359 45.2587 445.933 44.7467 445.677 44.064C445.421 43.3387 445.314 42.6347 445.357 41.952C445.399 41.2267 445.549 40.672 445.805 40.288C446.146 39.7333 446.786 39.0293 447.725 38.176C448.706 37.3227 450.199 36.384 452.205 35.36C454.21 34.2933 456.941 33.2053 460.397 32.096L460.845 32.672C458.285 33.8667 456.322 34.9973 454.957 36.064C453.634 37.088 452.738 38.1333 452.269 39.2C452.055 39.7547 451.991 40.3733 452.077 41.056C452.162 41.7387 452.397 42.272 452.781 42.656C453.378 43.296 454.082 43.9573 454.893 44.64C455.746 45.28 456.813 45.6 458.093 45.6H473.453L469.613 52H439.532ZM504.222 75.712C503.198 75.712 502.323 75.3493 501.598 74.624C500.872 73.8987 500.51 73.024 500.51 72C500.51 70.976 500.872 70.1013 501.598 69.376C502.323 68.6507 503.198 68.288 504.222 68.288C505.246 68.288 506.12 68.6507 506.846 69.376C507.571 70.1013 507.934 70.976 507.934 72C507.934 73.024 507.571 73.8987 506.846 74.624C506.12 75.3493 505.246 75.712 504.222 75.712ZM493.15 75.712C492.126 75.712 491.251 75.3493 490.526 74.624C489.8 73.8987 489.438 73.024 489.438 72C489.438 70.976 489.8 70.1013 490.526 69.376C491.251 68.6507 492.126 68.288 493.15 68.288C494.174 68.288 495.048 68.6507 495.774 69.376C496.499 70.1013 496.862 70.976 496.862 72C496.862 73.024 496.499 73.8987 495.774 74.624C495.048 75.3493 494.174 75.712 493.15 75.712ZM508.527 64.8L493.743 39.008C491.994 35.9787 491.162 33.312 491.247 31.008C491.332 28.704 491.994 26.6987 493.231 24.992C494.468 23.2427 495.94 21.728 497.647 20.448C498.97 19.4667 499.994 18.592 500.719 17.824C501.444 17.056 501.807 15.84 501.807 14.176L523.503 52H516.143L500.975 25.76C499.396 26.6133 498.415 28 498.031 29.92C497.69 31.7973 498.116 33.7813 499.311 35.872L515.823 64.8H508.527ZM518.191 52V45.6H528.175V52H518.191ZM484.975 64.8L490.351 55.84C490.778 56.6933 491.418 57.3333 492.271 57.76C493.124 58.1867 493.935 58.4 494.703 58.4H507.695L511.535 64.8H484.975ZM525.595 52V45.6H538.395L542.555 52H525.595ZM542.491 52C540.742 52 539.142 51.5733 537.691 50.72C536.24 49.8667 535.067 48.7147 534.171 47.264C533.318 45.7707 532.891 44.1493 532.891 42.4C532.891 40.608 533.318 38.9867 534.171 37.536C535.067 36.0853 536.24 34.9333 537.691 34.08C539.142 33.2267 540.742 32.8 542.491 32.8C544.24 32.8 545.84 33.2267 547.291 34.08C548.742 34.9333 549.894 36.0853 550.747 37.536C551.6 38.9867 552.027 40.608 552.027 42.4C552.027 44.1493 551.6 45.7707 550.747 47.264C549.894 48.7147 548.742 49.8667 547.291 50.72C545.84 51.5733 544.24 52 542.491 52ZM542.491 45.6C543.387 45.6 544.134 45.3013 544.731 44.704C545.371 44.064 545.691 43.296 545.691 42.4C545.691 41.504 545.371 40.7573 544.731 40.16C544.134 39.52 543.387 39.2 542.491 39.2C541.595 39.2 540.827 39.52 540.187 40.16C539.59 40.7573 539.291 41.504 539.291 42.4C539.291 43.296 539.59 44.064 540.187 44.704C540.827 45.3013 541.595 45.6 542.491 45.6ZM561.625 45.6L555.225 42.4V2.208L561.625 0.799999V45.6ZM564.825 52L568.025 45.6H582.105V52H564.825ZM564.825 52C563.076 52 561.476 51.5733 560.025 50.72C558.574 49.8667 557.401 48.7147 556.505 47.264C555.652 45.7707 555.225 44.1493 555.225 42.4H561.625C561.625 43.296 561.924 44.064 562.521 44.704C563.161 45.3013 563.929 45.6 564.825 45.6C565.721 45.6 566.468 45.3013 567.065 44.704C567.705 44.064 568.025 43.296 568.025 42.4H574.425C574.425 44.1493 573.977 45.7707 573.081 47.264C572.228 48.7147 571.076 49.8667 569.625 50.72C568.174 51.5733 566.574 52 564.825 52ZM568.025 45.6V0.799999L574.425 2.208V42.4L568.025 45.6ZM564.825 64.8C563.076 64.8 561.476 64.3733 560.025 63.52C558.574 62.6667 557.401 61.4933 556.505 60C555.652 58.5493 555.225 56.9493 555.225 55.2C555.225 53.408 555.652 51.7867 556.505 50.336C557.401 48.8853 558.574 47.7333 560.025 46.88C561.476 46.0267 563.076 45.6 564.825 45.6C566.574 45.6 568.174 46.0267 569.625 46.88C571.076 47.7333 572.228 48.8853 573.081 50.336C573.934 51.7867 574.361 53.408 574.361 55.2C574.361 56.9493 573.934 58.5493 573.081 60C572.228 61.4933 571.076 62.6667 569.625 63.52C568.174 64.3733 566.574 64.8 564.825 64.8ZM564.825 58.4C565.721 58.4 566.468 58.08 567.065 57.44C567.705 56.8427 568.025 56.096 568.025 55.2C568.025 54.304 567.705 53.536 567.065 52.896C566.468 52.2987 565.721 52 564.825 52C563.929 52 563.161 52.2987 562.521 52.896C561.924 53.536 561.625 54.304 561.625 55.2C561.625 56.096 561.924 56.8427 562.521 57.44C563.161 58.08 563.929 58.4 564.825 58.4ZM579.532 52V45.6H587.213V34.208L593.613 32.8V45.6H600.013V34.208L606.413 32.8V45.6H612.812V34.208L619.213 32.8V50.528C619.213 51.04 618.999 51.4027 618.573 51.616C618.146 51.8293 617.719 51.9573 617.293 52C616.866 52 616.653 52 616.653 52H579.532ZM628.812 45.6L622.413 42.4V2.208L628.812 0.799999V45.6ZM632.013 52C630.263 52 628.663 51.5733 627.213 50.72C625.762 49.8667 624.589 48.7147 623.693 47.264C622.839 45.7707 622.413 44.1493 622.413 42.4H628.812C628.812 43.296 629.111 44.064 629.709 44.704C630.349 45.3013 631.117 45.6 632.013 45.6C632.909 45.6 633.655 45.3013 634.253 44.704C634.893 44.064 635.213 43.296 635.213 42.4H641.613C641.613 44.1493 641.165 45.7707 640.269 47.264C639.415 48.7147 638.263 49.8667 636.812 50.72C635.362 51.5733 633.762 52 632.013 52ZM635.213 45.6V0.799999L641.613 2.208V42.4L635.213 45.6ZM632.013 64.8C630.263 64.8 628.663 64.3733 627.213 63.52C625.762 62.6667 624.589 61.4933 623.693 60C622.839 58.5493 622.413 56.9493 622.413 55.2C622.413 53.408 622.839 51.7867 623.693 50.336C624.589 48.8853 625.762 47.7333 627.213 46.88C628.663 46.0267 630.263 45.6 632.013 45.6C633.762 45.6 635.362 46.0267 636.812 46.88C638.263 47.7333 639.415 48.8853 640.269 50.336C641.122 51.7867 641.549 53.408 641.549 55.2C641.549 56.9493 641.122 58.5493 640.269 60C639.415 61.4933 638.263 62.6667 636.812 63.52C635.362 64.3733 633.762 64.8 632.013 64.8ZM632.013 58.4C632.909 58.4 633.655 58.08 634.253 57.44C634.893 56.8427 635.213 56.096 635.213 55.2C635.213 54.304 634.893 53.536 634.253 52.896C633.655 52.2987 632.909 52 632.013 52C631.117 52 630.349 52.2987 629.709 52.896C629.111 53.536 628.812 54.304 628.812 55.2C628.812 56.096 629.111 56.8427 629.709 57.44C630.349 58.08 631.117 58.4 632.013 58.4ZM657.268 48.288C657.012 49.2267 656.414 50.0373 655.476 50.72C654.58 51.36 653.513 51.808 652.276 52.064C651.081 52.32 649.908 52.32 648.756 52.064C647.646 51.808 646.708 51.2747 645.94 50.464C645.172 49.6107 644.788 48.416 644.788 46.88V2.208L651.188 0.799999V46.88C651.188 47.648 651.422 48.2027 651.892 48.544C652.361 48.8427 652.937 49.0133 653.62 49.056C654.302 49.056 654.985 48.9707 655.668 48.8C656.35 48.6293 656.884 48.4587 657.268 48.288ZM667.163 52L671.003 45.6H711.643C711.685 43.808 711.323 42.2933 710.555 41.056C709.829 39.8187 708.272 39.2 705.883 39.2H674.203L682.651 25.12L683.291 25.568L679.963 32.8H705.883C708.528 32.8 710.64 33.1627 712.219 33.888C713.797 34.6133 714.992 35.5947 715.803 36.832C716.656 38.0267 717.232 39.392 717.531 40.928C717.829 42.4213 718 43.9787 718.043 45.6H725.723V52H667.163ZM740.118 52L744.278 45.6H756.886V52H740.118ZM730.518 55.2V42.4H731.414V55.2H730.518ZM723.157 52V45.6H735.958L740.118 52H723.157ZM746.838 55.2V42.4H749.654V55.2H746.838ZM740.118 64.8C738.368 64.8 736.768 64.3733 735.318 63.52C733.867 62.6667 732.694 61.4933 731.798 60C730.944 58.5493 730.518 56.9493 730.518 55.2C730.518 53.408 730.944 51.7867 731.798 50.336C732.694 48.8853 733.867 47.7333 735.318 46.88C736.768 46.0267 738.368 45.6 740.118 45.6C741.867 45.6 743.467 46.0267 744.918 46.88C746.368 47.7333 747.52 48.8853 748.374 50.336C749.227 51.7867 749.654 53.408 749.654 55.2C749.654 56.9493 749.227 58.5493 748.374 60C747.52 61.4933 746.368 62.6667 744.918 63.52C743.467 64.3733 741.867 64.8 740.118 64.8ZM740.118 58.4C741.014 58.4 741.76 58.08 742.358 57.44C742.998 56.8427 743.318 56.096 743.318 55.2C743.318 54.304 742.998 53.536 742.358 52.896C741.76 52.2987 741.014 52 740.118 52C739.222 52 738.454 52.2987 737.814 52.896C737.216 53.536 736.918 54.304 736.918 55.2C736.918 56.096 737.216 56.8427 737.814 57.44C738.454 58.08 739.222 58.4 740.118 58.4ZM749.654 42.4L740.118 32.8C740.672 32.8 741.398 32.8 742.294 32.8C743.19 32.8 744.107 32.736 745.046 32.608C746.027 32.4373 746.923 32.1387 747.734 31.712C748.587 31.2853 749.227 30.6667 749.654 29.856V42.4ZM740.118 52C738.368 52 736.768 51.5733 735.318 50.72C733.867 49.8667 732.694 48.7147 731.798 47.264C730.944 45.7707 730.518 44.1493 730.518 42.4C730.518 40.608 730.944 38.9867 731.798 37.536C732.694 36.0853 733.867 34.9333 735.318 34.08C736.768 33.2267 738.368 32.8 740.118 32.8C741.867 32.8 743.467 33.2267 744.918 34.08C746.368 34.9333 747.52 36.0853 748.374 37.536C749.227 38.9867 749.654 40.608 749.654 42.4C749.654 44.1493 749.227 45.7707 748.374 47.264C747.52 48.7147 746.368 49.8667 744.918 50.72C743.467 51.5733 741.867 52 740.118 52ZM740.118 45.6C741.014 45.6 741.76 45.3013 742.358 44.704C742.998 44.064 743.318 43.296 743.318 42.4C743.318 41.504 742.998 40.7573 742.358 40.16C741.76 39.52 741.014 39.2 740.118 39.2C739.222 39.2 738.454 39.52 737.814 40.16C737.216 40.7573 736.918 41.504 736.918 42.4C736.918 43.296 737.216 44.064 737.814 44.704C738.454 45.3013 739.222 45.6 740.118 45.6ZM754.345 52V45.6H779.305V52H754.345ZM766.377 49.056L753.001 34.528L757.225 28.704L771.497 44.256L766.377 49.056ZM765.545 48.8V27.808L771.945 26.4V48.8H765.545ZM776.72 52V45.6H789.52L793.68 52H776.72ZM793.68 52L797.84 45.6H810.64V52H793.68ZM793.68 52C791.931 52 790.331 51.5733 788.88 50.72C787.429 49.8667 786.277 48.7147 785.424 47.264C784.571 45.7707 784.144 44.1493 784.144 42.4C784.144 40.224 784.784 38.304 786.064 36.64C787.344 34.9333 788.965 33.7813 790.928 33.184C791.397 33.056 791.888 32.7573 792.4 32.288C792.955 31.776 793.381 30.88 793.68 29.6C794.021 30.88 794.469 31.776 795.024 32.288C795.621 32.7573 796.133 33.0773 796.56 33.248C798.48 33.8453 800.059 34.9973 801.296 36.704C802.533 38.368 803.152 40.2667 803.152 42.4C803.152 44.1493 802.725 45.7707 801.872 47.264C801.019 48.7147 799.867 49.8667 798.416 50.72C797.008 51.5733 795.429 52 793.68 52ZM793.68 45.6C794.576 45.6 795.323 45.3013 795.92 44.704C796.56 44.064 796.88 43.296 796.88 42.4C796.88 41.504 796.56 40.7573 795.92 40.16C795.323 39.52 794.576 39.2 793.68 39.2C792.784 39.2 792.016 39.52 791.376 40.16C790.779 40.7573 790.48 41.504 790.48 42.4C790.48 43.296 790.779 44.064 791.376 44.704C792.016 45.3013 792.784 45.6 793.68 45.6ZM808.095 52V45.6H815.775V2.208L822.175 0.799999V50.528C822.175 51.04 821.962 51.4027 821.535 51.616C821.108 51.8293 820.682 51.9573 820.255 52C819.828 52 819.615 52 819.615 52H808.095ZM837.83 48.288C837.574 49.2267 836.977 50.0373 836.038 50.72C835.142 51.36 834.075 51.808 832.838 52.064C831.643 52.32 830.47 52.32 829.318 52.064C828.209 51.808 827.27 51.2747 826.502 50.464C825.734 49.6107 825.35 48.416 825.35 46.88V2.208L831.75 0.799999V46.88C831.75 47.648 831.985 48.2027 832.454 48.544C832.923 48.8427 833.499 49.0133 834.182 49.056C834.865 49.056 835.547 48.9707 836.23 48.8C836.913 48.6293 837.446 48.4587 837.83 48.288Z" fill="white"/>
</svg>
